<?xml version="1.0" standalone="no"?>
<!DOCTYPE svg PUBLIC "-//W3C//DTD SVG 1.1//EN" "http://www.w3.org/Graphics/SVG/1.1/DTD/svg11.dtd">
<svg xmlns="http://www.w3.org/2000/svg" fill="#000000" width="32" height="32" viewBox="0 0 32 32" version="1.1">
<title>graphql</title>
<path fill="#fff" d="M7.696 22.798h16.611l-8.305 4.794zM17.736 5.409l8.305 4.796v9.59zM14.269 5.409l-8.304 14.386v-9.59zM16.003 4.946l9.572 16.583h-19.147zM16.003 2.945l-11.308 6.528v13.056l11.308 6.528 11.305-6.528v-13.056zM5.328 7.166c-1.476 0-2.672 1.196-2.672 2.672s1.196 2.672 2.672 2.672c1.476 0 2.672-1.196 2.672-2.672 0-0.492-0.133-0.953-0.365-1.349l0.007 0.013c-0.471-0.804-1.33-1.336-2.314-1.336 0 0 0 0 0 0v0zM5.328 19.491c0 0.852 0.691 1.542 1.543 1.542s1.543-0.691 1.543-1.543-0.691-1.543-1.543-1.543c-0.852 0-1.542 0.69-1.543 1.542v0zM16.002 25.652c0 0 0 0 0 0-1.476 0-2.672 1.196-2.672 2.672s1.196 2.672 2.672 2.672c1.476 0 2.672-1.196 2.672-2.672 0-0.492-0.133-0.953-0.365-1.349l0.007 0.013c-0.471-0.804-1.33-1.336-2.314-1.336v0zM26.674 19.49c-1.476 0-2.672 1.196-2.672 2.672s1.196 2.672 2.672 2.672c1.476 0 2.672-1.196 2.672-2.672 0-0.492-0.133-0.953-0.365-1.349l0.007 0.013c-0.471-0.804-1.33-1.336-2.314-1.336 0 0-0 0-0 0v0zM26.674 7.166c-1.476 0-2.672 1.196-2.672 2.672s1.196 2.672 2.672 2.672c1.476 0 2.672-1.196 2.672-2.672 0-0.492-0.133-0.953-0.365-1.349l0.007 0.013c-0.471-0.804-1.33-1.336-2.314-1.336-0 0-0 0-0 0v0zM16.002 1.004c0 0 0 0 0 0-1.476 0-2.672 1.196-2.672 2.672s1.196 2.672 2.672 2.672c1.476 0 2.672-1.196 2.672-2.672 0-0.492-0.133-0.953-0.365-1.349l0.007 0.013c-0.471-0.804-1.33-1.336-2.314-1.336v0z"/>
</svg>