<svg class="js-gb-logo" viewBox="0 0 168 230" version="1.1" xmlns="http://www.w3.org/2000/svg" xmlns:xlink="http://www.w3.org/1999/xlink">
  <g id="gb-main-mobile-logo" stroke="none" stroke-width="1" fill="none" fill-rule="evenodd">
    <g id="logo-gob-isotipo">
      <path d="M98.746,67.3791 C123.149,40.7574 167.5,58.044 167.5,94.133 L167.5,189.911 C167.5,211.769 149.785,229.5 127.92,229.5 L40.1238,229.5 C5.6697,229.5 -12.316329,188.539 10.9497,163.158 L98.746,67.3791 Z M132.5,94.133 C132.5,89.936 127.361,87.959 124.546,91.029 L36.7502,186.808 C34.0443,189.76 36.1499,194.5 40.1238,194.5 L127.92,194.5 C130.443,194.5 132.5,192.452 132.5,189.911 L132.5,94.133 Z" fill="white"></path>
      <path d="M84,35.5 C57.3385,35.5 35.5,57.3133 35.5,84.5 C35.5,111.687 57.3385,133.5 84,133.5 C110.662,133.5 132.5,111.687 132.5,84.5 C132.5,57.3133 110.662,35.5 84,35.5 Z M0.5,84.5 C0.5,38.2328 37.7599,0.5 84,0.5 C130.24,0.5 167.5,38.2328 167.5,84.5 C167.5,130.767 130.24,168.5 84,168.5 C37.7599,168.5 0.5,130.767 0.5,84.5 Z" fill="white"></path>
      <path d="M50.539,119.969 L26.8838,145.775 C35.5486,153.956 45.9535,160.301 57.4907,164.182 L85.641,133.472 C85.0963,133.491 84.5494,133.5 84.0004,133.5 C71.0629,133.5 59.261,128.364 50.539,119.969 Z M131.95,91.916 C132.312,89.499 132.5,87.023 132.5,84.5 C132.5,73.3007 128.795,63.0133 122.572,54.7869 C143.392,52.0848 165.099,66.5204 167.315,90.136 C165.611,115.964 152.284,138.66 132.5,152.89 L132.5,94.133 C132.5,93.299 132.297,92.552 131.95,91.916 Z" fill="white"></path>
    </g>
  </g>
</svg>